<?xml version="1.0" standalone="no"?>
<!DOCTYPE svg PUBLIC "-//W3C//DTD SVG 20010904//EN"
 "http://www.w3.org/TR/2001/REC-SVG-20010904/DTD/svg10.dtd">
<svg version="1.0" xmlns="http://www.w3.org/2000/svg"
 width="512.000000pt" height="512.000000pt" viewBox="0 0 512.000000 512.000000"
 preserveAspectRatio="xMidYMid meet">

<g transform="translate(0.000000,512.000000) scale(0.100000,-0.100000)"
fill="#000000" stroke="none">
<path d="M1024 5100 c-139 -36 -255 -111 -381 -244 -325 -343 -549 -995 -625
-1821 -17 -183 -17 -767 0 -950 76 -826 300 -1478 625 -1821 257 -272 540
-334 831 -182 107 56 275 221 365 358 316 477 501 1259 501 2120 0 862 -184
1642 -501 2120 -92 139 -259 303 -366 358 -154 79 -304 100 -449 62z m292
-319 c127 -60 267 -227 381 -456 358 -718 448 -1948 213 -2920 -133 -551 -355
-948 -600 -1068 -55 -27 -75 -32 -140 -32 -65 0 -85 5 -141 32 -305 150 -573
739 -679 1487 -11 80 -20 152 -20 160 0 12 12 10 54 -10 233 -106 520 -51 706
135 254 255 254 647 0 902 -186 186 -473 241 -706 135 -42 -20 -54 -22 -54
-10 0 35 43 317 66 428 56 278 140 538 239 741 80 165 151 271 240 361 153
154 285 188 441 115z m-534 -1913 c71 -33 133 -94 167 -167 22 -47 26 -70 26
-141 0 -102 -28 -173 -95 -240 -67 -67 -138 -95 -240 -95 -71 0 -94 4 -140 26
-70 33 -136 99 -169 169 -37 79 -37 201 0 280 28 59 94 132 143 157 96 50 213
54 308 11z"/>
<path d="M3804 5100 c-138 -36 -249 -106 -374 -236 -401 -417 -650 -1300 -650
-2304 0 -627 99 -1227 277 -1680 249 -633 620 -949 1017 -865 435 92 800 688
960 1565 61 338 81 575 80 990 0 403 -20 637 -80 970 -106 580 -304 1050 -557
1316 -210 222 -440 305 -673 244z m290 -319 c261 -128 505 -600 630 -1216 116
-575 126 -1284 25 -1875 -116 -679 -375 -1213 -656 -1352 -58 -28 -78 -33
-143 -33 -107 0 -186 39 -290 143 -210 209 -382 602 -484 1102 -26 127 -66
387 -66 427 l0 22 54 -25 c300 -137 673 -3 824 296 95 190 96 389 0 580 -150
299 -524 433 -825 295 l-55 -25 7 68 c11 107 53 357 80 472 142 614 390 1046
657 1142 75 27 160 19 242 -21z m-533 -1913 c68 -31 130 -94 166 -166 24 -49
28 -69 28 -142 0 -73 -4 -93 -28 -142 -35 -72 -97 -134 -167 -167 -79 -37
-201 -37 -280 0 -281 132 -256 539 39 634 68 22 174 14 242 -17z"/>
</g>
</svg>
